<svg width="24" height="26" viewBox="0 0 24 26" fill="none" xmlns="http://www.w3.org/2000/svg">
<path d="M20.0604 22.5541C18.6661 23.6125 17.0654 24.3667 15.3615 24.7682C13.6577 25.1697 11.8886 25.2095 10.1684 24.885C8.44022 24.5647 6.79995 23.8805 5.35639 22.8779C3.91283 21.8753 2.69899 20.5771 1.7954 19.0696C0.397758 16.7169 -0.197776 13.9739 0.0984579 11.2535C0.394692 8.53309 1.56666 5.98254 3.43792 3.98584C4.66336 2.71577 6.1242 1.69626 7.73902 0.98413C8.16671 0.804037 8.63475 0.741499 9.09472 0.802991C9.55469 0.864483 9.98987 1.04777 10.3552 1.33388C10.7206 1.61999 11.0029 1.99854 11.1728 2.43035C11.3428 2.86216 11.3943 3.33155 11.322 3.78994C10.1671 10.1193 14.5794 15.2414 21.0757 15.2304C21.5411 15.2376 21.996 15.3693 22.3932 15.612C22.7904 15.8546 23.1153 16.1993 23.3341 16.6101C23.5529 17.0209 23.6576 17.4828 23.6373 17.9478C23.617 18.4128 23.4725 18.8638 23.2187 19.254C22.3473 20.5143 21.2812 21.6282 20.0604 22.5541ZM6.25395 4.26307C5.78753 4.61591 5.34935 5.0046 4.9434 5.42562C3.38511 7.08756 2.40882 9.21072 2.1615 11.4755C1.91419 13.7403 2.40922 16.0241 3.57209 17.9832C4.32536 19.2425 5.33803 20.327 6.5428 21.1648C7.74757 22.0025 9.11684 22.5743 10.5596 22.842C12.642 23.195 14.7822 22.9361 16.7203 22.0967C18.6585 21.2573 20.3114 19.8734 21.4785 18.113C21.5275 18.0354 21.555 17.9461 21.5584 17.8544C21.5617 17.7626 21.5408 17.6716 21.4976 17.5906C21.4545 17.5096 21.3907 17.4414 21.3127 17.3929C21.2347 17.3445 21.1453 17.3175 21.0535 17.3148C13.3139 17.3393 7.87486 10.9957 9.26699 3.44316C9.28225 3.35555 9.27277 3.26542 9.23963 3.1829C9.20648 3.10039 9.15098 3.02875 9.07935 2.97604C9.00733 2.91707 8.92055 2.87891 8.8284 2.86571C8.73626 2.8525 8.64225 2.86475 8.55656 2.90112C7.73693 3.26062 6.96378 3.71792 6.25395 4.26307Z" fill="#222222"/>
</svg>
